<?xml version="1.0" encoding="UTF-8" standalone="no" ?>
<!DOCTYPE svg PUBLIC "-//W3C//DTD SVG 1.1//EN" "http://www.w3.org/Graphics/SVG/1.1/DTD/svg11.dtd">
<svg xmlns="http://www.w3.org/2000/svg" xmlns:xlink="http://www.w3.org/1999/xlink" version="1.1" width="50" height="50" viewBox="0 0 50 50" xml:space="preserve">
<desc>Created with Fabric.js 4.6.0</desc>
<defs>
</defs>
<g transform="matrix(1 0 0 1 12.5 12.5)" id="qHmYgy7VSNAM-nu-qrkCz"  >
<path style="stroke: rgb(104,90,141); stroke-width: 0; stroke-dasharray: none; stroke-linecap: butt; stroke-dashoffset: 0; stroke-linejoin: miter; stroke-miterlimit: 4; fill: rgb(83,141,78); fill-rule: nonzero; opacity: 1;" vector-effect="non-scaling-stroke"  transform=" translate(-12.5, -12.5)" d="M 0 0 L 25 0 L 25 25 L 0 25 z" stroke-linecap="round" />
</g>
<g transform="matrix(1 0 0 1 37.5 12.5)" id="zA6ROVvza1V6Rg4DZrrhK"  >
<path style="stroke: rgb(34,102,77); stroke-width: 0; stroke-dasharray: none; stroke-linecap: butt; stroke-dashoffset: 0; stroke-linejoin: miter; stroke-miterlimit: 4; fill: rgb(181,159,59); fill-rule: nonzero; opacity: 1;" vector-effect="non-scaling-stroke"  transform=" translate(-12.5, -12.5)" d="M 0 0 L 25 0 L 25 25 L 0 25 z" stroke-linecap="round" />
</g>
<g transform="matrix(1 0 0 1 12.5 37.5)" id="dEq1-73y8-ruZRKttgYTF"  >
<path style="stroke: rgb(192,228,63); stroke-width: 0; stroke-dasharray: none; stroke-linecap: butt; stroke-dashoffset: 0; stroke-linejoin: miter; stroke-miterlimit: 4; fill: rgb(181,159,59); fill-rule: nonzero; opacity: 1;" vector-effect="non-scaling-stroke"  transform=" translate(-12.5, -12.5)" d="M 0 0 L 25 0 L 25 25 L 0 25 z" stroke-linecap="round" />
</g>
<g transform="matrix(1 0 0 1 37.5 37.5)" id="58iVOJDjqLEKXuUBoXO8i"  >
<path style="stroke: rgb(106,52,35); stroke-width: 0; stroke-dasharray: none; stroke-linecap: butt; stroke-dashoffset: 0; stroke-linejoin: miter; stroke-miterlimit: 4; fill: rgb(58,58,60); fill-rule: nonzero; opacity: 1;" vector-effect="non-scaling-stroke"  transform=" translate(-12.5, -12.5)" d="M 0 0 L 25 0 L 25 25 L 0 25 z" stroke-linecap="round" />
</g>
</svg>